<?xml version="1.0" encoding="UTF-8"?>
<svg id="Capa_1" data-name="Capa 1" xmlns="http://www.w3.org/2000/svg" viewBox="0 0 372.71 361.91">
    <defs>
      <style>
        .cls-1 {
          fill: #a0a0a0 !important;
        }
  
        .cls-1, .cls-2, .cls-3, .cls-4 {
          stroke-width: 0px;
        }
  
        .cls-2 {
          fill: #8e8e8e;
        }
  
        .cls-3 {
          fill: #6a6a69;
        }
  
        .cls-4 {
          fill: #fff;
        }
      </style>
    </defs>
    <polygon class="cls-1" points="183.33 132.78 337.6 81.96 337.36 283.2 183.08 334.02 183.33 132.78"/>
    <polygon class="cls-3" points="183.33 132.78 183.08 334.02 35.1 279.94 35.35 78.71 183.33 132.78"/>
    <polygon class="cls-2" points="35.35 78.71 189.63 27.89 337.6 81.96 183.33 132.78 35.35 78.71"/>
    <polygon class="cls-4" points="183.13 131.31 183.08 174.6 239.77 155.93 239.58 315.29 280.59 301.9 280.59 301.9 280.79 142.42 337.55 123.72 337.6 80.43 183.13 131.31"/>
    <g>
      <polyline class="cls-4" points="227.63 79.02 251.83 61.5 241.96 57.89 190.28 65.37 199.78 68.84 235.49 63.45 218.22 75.58 227.63 79.02"/>
      <polyline class="cls-4" points="206.38 98.99 217.44 95.35 172.23 60.55 161.15 64.2 206.38 98.99"/>
      <polyline class="cls-4" points="185.96 92.75 176.55 89.31 140.72 94.66 158.1 82.57 148.6 79.1 124.38 96.62 134.25 100.23 185.96 92.75"/>
    </g>
    <polygon class="cls-4" points="183.08 334.02 35.1 279.94 35.35 78.71 183.13 131.31 183.08 174.6 70.5 132.78 70.5 255.3 183.08 296.9 183.08 334.02"/>
  </svg>