<?xml version="1.0" encoding="UTF-8"?>
<!-- Generator: visioncortex VTracer 0.6.3 -->
<svg version="1.1" xmlns="http://www.w3.org/2000/svg" width="1280" height="1230">
<path d="M0 0 C422.4 0 844.8 0 1280 0 C1280 405.9 1280 811.8 1280 1230 C857.6 1230 435.2 1230 0 1230 C0 824.1 0 418.2 0 0 Z " fill="none" transform="translate(0,0)"/>
<path d="M0 0 C1.69 1.31 3.35 2.64 5 4 C6.93 5.05 8.89 6.05 10.88 7 C15.36 9.16 19.69 11.5 24 14 C31.96 18.52 39.94 22.99 47.98 27.35 C58.52 33.11 68.99 38.98 79.45 44.88 C83.16 46.97 86.88 49.03 90.62 51.06 C94.7 53.27 98.73 55.56 102.75 57.88 C110.07 62.09 117.52 66.06 125 70 C125 70.66 125 71.32 125 72 C125.99 72.24 126.98 72.48 128 72.73 C132.38 73.98 136.09 76.08 140 78.38 C140.67 78.76 141.35 79.15 142.04 79.55 C144.03 80.69 146.01 81.85 148 83 C152.44 85.57 156.91 88.04 161.44 90.44 C165.17 92.43 168.82 94.46 172.38 96.75 C174.76 98.29 176.85 99.36 179.5 100.5 C182.94 101.98 185.88 103.71 189.02 105.74 C190.9 106.93 192.8 108.04 194.75 109.12 C198 111 198 111 199.94 112.56 C202.46 114.32 204.99 115.14 207.9 116.06 C210 117 210 117 212.39 118.91 C215.11 121.09 217.74 122.5 220.88 124 C225.37 126.19 229.68 128.49 234 131 C238.56 133.52 243.14 136 247.73 138.47 C253.64 141.67 259.43 145 265.18 148.48 C268 150.11 268 150.11 271.29 151.02 C272.19 151.34 273.08 151.67 274 152 C274.33 152.99 274.66 153.98 275 155 C276.98 155.72 278.99 156.38 281 157 C283.11 158.12 285.19 159.29 287.25 160.5 C288.47 161.21 289.7 161.93 290.92 162.64 C291.57 163.02 292.23 163.4 292.9 163.79 C296.74 166 300.62 168.16 304.5 170.31 C305.25 170.73 306.01 171.15 306.78 171.59 C310.81 173.82 314.86 175.98 319 178 C319 178.66 319 179.32 319 180 C319.56 180.12 320.13 180.24 320.71 180.36 C329.49 182.81 338 188.56 345.76 193.28 C346.43 193.69 347.09 194.09 347.78 194.51 C349.11 195.32 350.44 196.14 351.77 196.97 C354.83 198.84 357.5 200.25 361 201 C361 201.66 361 202.32 361 203 C361.66 203.25 362.32 203.5 363 203.75 C369.01 206.25 374.52 209.27 380 212.78 C382.61 214.37 385.33 215.7 388.08 217.05 C392.1 219.04 395.94 221.37 399.79 223.67 C400.81 224.27 401.83 224.88 402.88 225.5 C403.82 226.07 404.77 226.63 405.74 227.22 C408.25 228.59 410.67 229.76 413.28 230.89 C418.24 233.05 422.91 235.61 427.62 238.25 C429.38 239.23 431.14 240.2 432.9 241.18 C433.76 241.66 434.62 242.14 435.51 242.63 C439.07 244.59 442.66 246.48 446.25 248.38 C461.19 256.32 461.19 256.32 463 261 C463.25 262.96 463.25 262.96 463.25 265.07 C463.26 265.88 463.26 266.69 463.27 267.52 C463.27 268.4 463.26 269.29 463.26 270.2 C463.26 271.14 463.26 272.09 463.27 273.06 C463.28 276.25 463.27 279.45 463.27 282.64 C463.27 284.94 463.28 287.24 463.28 289.54 C463.29 295.89 463.29 302.24 463.29 308.58 C463.29 314.71 463.3 320.85 463.31 326.98 C463.33 341.08 463.33 355.18 463.33 369.28 C463.34 380.17 463.34 391.06 463.35 401.94 C463.35 405.07 463.35 408.2 463.35 411.33 C463.35 412.5 463.35 412.5 463.35 413.69 C463.36 435.59 463.37 457.49 463.37 479.38 C463.37 480.21 463.37 481.04 463.37 481.89 C463.37 486.07 463.37 490.26 463.37 494.44 C463.37 495.69 463.37 495.69 463.37 496.96 C463.37 498.65 463.37 500.33 463.37 502.01 C463.37 528.18 463.38 554.35 463.41 580.51 C463.44 609.9 463.46 639.28 463.46 668.67 C463.46 671.8 463.46 674.93 463.46 678.06 C463.46 679.22 463.46 679.22 463.46 680.39 C463.46 692.82 463.47 705.25 463.49 717.67 C463.5 730.15 463.51 742.63 463.49 755.11 C463.49 761.87 463.49 768.64 463.5 775.4 C463.52 781.59 463.52 787.77 463.5 793.96 C463.5 796.2 463.5 798.45 463.51 800.69 C463.52 803.73 463.51 806.77 463.5 809.8 C463.51 810.69 463.52 811.57 463.53 812.48 C463.46 818.36 463.46 818.36 461.16 821.57 C459 823 459 823 456 823 C456 823.66 456 824.32 456 825 C454.68 825 453.36 825 452 825 C451.67 825.99 451.34 826.98 451 828 C448.76 829.29 446.59 830.42 444.25 831.5 C440.05 833.5 435.97 835.56 432 838 C430.3 838.95 428.59 839.88 426.88 840.81 C425.92 841.33 424.96 841.85 423.98 842.39 C422.01 843.46 420.03 844.52 418.05 845.58 C412.14 848.75 412.14 848.75 406.5 852.38 C404 854 404 854 401 854 C401 854.66 401 855.32 401 856 C400.3 856.3 399.6 856.61 398.88 856.92 C393.62 859.24 388.7 861.67 383.9 864.81 C381.33 866.42 378.65 867.72 375.93 869.04 C371.28 871.35 367 873.98 362.75 876.94 C358.57 879.77 354.26 881.77 349.64 883.78 C346.51 885.23 343.73 886.98 340.86 888.87 C338.97 890.02 337.11 890.86 335.06 891.69 C331.91 892.65 331.91 892.65 331 895 C329.08 896.11 327.11 897.14 325.12 898.12 C324.06 898.66 322.99 899.2 321.88 899.76 C319 901 319 901 316 901 C315.67 901.99 315.34 902.98 315 904 C312.78 905.21 312.78 905.21 309.94 906.38 C305.72 908.19 301.93 910.18 298.09 912.68 C294.74 914.8 291.24 916.63 287.75 918.51 C284.42 920.31 281.15 922.21 277.88 924.12 C276 925 276 925 273 925 C272.67 925.99 272.34 926.98 272 928 C269.78 929.21 269.78 929.21 266.94 930.38 C262.71 932.2 258.92 934.19 255.07 936.7 C249.65 940.11 243.9 943 238.24 945.98 C232.3 949.12 226.42 952.26 220.77 955.91 C216.41 958.6 212.02 960.89 207 962 C207 962.66 207 963.32 207 964 C206.3 964.3 205.6 964.61 204.88 964.92 C199.63 967.23 194.65 969.64 189.85 972.79 C185.19 975.84 180.34 978.49 175.44 981.12 C174.45 981.66 174.45 981.66 173.44 982.21 C170.31 983.89 167.46 985.24 164 986 C164 986.66 164 987.32 164 988 C162.89 988.55 162.89 988.55 161.76 989.1 C155.5 992.21 149.34 995.42 143.28 998.9 C141 1000 141 1000 138 1000 C137.67 1000.99 137.34 1001.98 137 1003 C134.38 1004.61 134.38 1004.61 131.12 1006.19 C130.06 1006.72 128.99 1007.25 127.88 1007.79 C125 1009 125 1009 122 1009 C121.67 1009.99 121.34 1010.98 121 1012 C118.23 1013.61 118.23 1013.61 114.62 1015.31 C113.35 1015.93 112.07 1016.55 110.79 1017.16 C109.83 1017.62 109.83 1017.62 108.85 1018.09 C103.4 1020.76 98.05 1023.63 93 1027 C87.3 1030.8 81.15 1033.87 75.09 1037.06 C74.43 1037.41 73.76 1037.76 73.07 1038.13 C71.76 1038.82 70.44 1039.51 69.13 1040.2 C66.62 1041.52 64.24 1042.81 62 1044.55 C59.22 1046.57 56.15 1047.65 53 1049 C50.83 1050.27 48.68 1051.59 46.56 1052.94 C42.55 1055.46 38.55 1057.84 34.28 1059.88 C29.06 1062.44 23.96 1065.26 18.84 1068.01 C17.16 1068.91 15.48 1069.81 13.8 1070.71 C5.45 1074.81 5.45 1074.81 -1.44 1080.81 C-3 1082 -3 1082 -6.12 1082.06 C-10.24 1081.27 -13.12 1079.07 -16.48 1076.68 C-19.21 1074.86 -21.99 1073.43 -24.94 1072 C-29.66 1069.71 -34.14 1067.19 -38.61 1064.45 C-45.54 1060.18 -45.54 1060.18 -53 1057 C-53 1056.34 -53 1055.68 -53 1055 C-53.55 1054.89 -54.11 1054.78 -54.68 1054.67 C-57.43 1053.88 -59.63 1052.66 -62.12 1051.25 C-65.81 1049.19 -69.52 1047.22 -73.31 1045.38 C-77.1 1043.51 -80.49 1041.34 -84 1039 C-85.66 1038.15 -87.33 1037.32 -89 1036.5 C-92.9 1034.6 -96.39 1032.41 -100 1030 C-101.53 1029.21 -103.08 1028.44 -104.62 1027.69 C-109.47 1025.32 -114.07 1022.64 -118.71 1019.9 C-122.99 1017.43 -127.36 1015.12 -131.75 1012.84 C-135.68 1010.78 -139.32 1008.46 -143 1006 C-144.67 1005.11 -146.36 1004.26 -148.06 1003.44 C-151.49 1001.76 -154.73 999.96 -158 998 C-161.32 996.3 -164.65 994.64 -168 993 C-168 992.34 -168 991.68 -168 991 C-168.83 990.76 -169.66 990.52 -170.52 990.27 C-174.53 988.81 -178.01 986.89 -181.69 984.75 C-183.11 983.93 -184.54 983.12 -185.96 982.3 C-186.66 981.91 -187.35 981.51 -188.06 981.1 C-190.6 979.66 -193.17 978.26 -195.75 976.88 C-199.49 974.85 -203.16 972.73 -206.81 970.56 C-212.34 967.31 -218 964.46 -223.77 961.68 C-227.03 959.99 -229.97 958.06 -233 956 C-234.67 955.04 -236.36 954.1 -238.06 953.19 C-239.01 952.68 -239.96 952.17 -240.93 951.64 C-242.45 950.83 -242.45 950.83 -244 950 C-246.21 948.81 -248.42 947.63 -250.62 946.44 C-251.71 945.85 -252.8 945.27 -253.92 944.66 C-263.47 939.5 -263.47 939.5 -267.89 936.88 C-270.53 935.31 -272.94 934.02 -275.88 933.12 C-279.24 931.91 -281.44 930.39 -284.25 928.19 C-288.6 924.92 -292.89 922.39 -297.8 920.08 C-300.72 918.65 -303.3 916.8 -306 915 C-308.49 913.7 -311 912.47 -313.54 911.25 C-316.11 909.95 -318.54 908.49 -321 907 C-322.7 906.05 -324.41 905.12 -326.12 904.19 C-327.09 903.67 -328.05 903.14 -329.04 902.61 C-330.96 901.56 -332.88 900.52 -334.81 899.49 C-339.26 897.08 -343.67 894.63 -348 892 C-354.23 888.23 -360.62 884.79 -367.06 881.38 C-373 878.23 -378.82 874.94 -384.56 871.44 C-389.99 868.13 -395.49 865.18 -401.22 862.41 C-404.85 860.57 -408.27 858.45 -411.73 856.32 C-414.73 854.57 -417.77 853.26 -421 852 C-421 851.34 -421 850.68 -421 850 C-421.73 849.71 -422.47 849.43 -423.23 849.13 C-430.29 846.25 -437 842.5 -443.75 838.94 C-444.38 838.61 -445 838.28 -445.65 837.94 C-449.6 835.84 -453.29 833.5 -457 831 C-458.34 830.26 -459.69 829.55 -461.06 828.88 C-462.07 828.37 -462.07 828.37 -463.11 827.86 C-465.13 826.9 -465.13 826.9 -467.88 826.06 C-470 825 -470 825 -471.31 822.38 C-471.54 821.59 -471.77 820.81 -472 820 C-472.66 820 -473.32 820 -474 820 C-475.69 816.62 -475.14 812.78 -475.13 809.06 C-475.13 808.12 -475.14 807.18 -475.14 806.21 C-475.14 803.02 -475.14 799.83 -475.14 796.63 C-475.14 794.34 -475.15 792.04 -475.15 789.74 C-475.16 783.4 -475.16 777.06 -475.16 770.72 C-475.16 764.59 -475.17 758.47 -475.17 752.34 C-475.19 735.92 -475.2 719.5 -475.2 703.08 C-475.2 695.32 -475.21 687.56 -475.21 679.79 C-475.22 653.24 -475.23 626.68 -475.24 600.12 C-475.24 598.45 -475.24 596.78 -475.24 595.12 C-475.24 593.44 -475.24 591.77 -475.24 590.1 C-475.24 586.75 -475.24 583.39 -475.24 580.04 C-475.24 579.21 -475.24 578.37 -475.24 577.52 C-475.24 550.54 -475.26 523.56 -475.28 496.57 C-475.31 468.07 -475.32 439.56 -475.32 411.05 C-475.32 407.93 -475.32 404.8 -475.32 401.67 C-475.32 400.52 -475.32 400.52 -475.32 399.34 C-475.32 386.93 -475.34 374.51 -475.35 362.1 C-475.36 349.64 -475.37 337.17 -475.36 324.7 C-475.36 317.95 -475.36 311.19 -475.37 304.43 C-475.38 298.25 -475.38 292.07 -475.37 285.89 C-475.37 283.65 -475.37 281.41 -475.38 279.16 C-475.39 276.13 -475.38 273.1 -475.37 270.06 C-475.38 269.18 -475.39 268.29 -475.39 267.38 C-475.34 261.43 -475.34 261.43 -473.7 259.37 C-471.45 257.56 -468.96 256.41 -466.37 255.16 C-460.15 252.12 -454.11 248.85 -448.44 244.88 C-444.52 242.17 -440.56 240.5 -436.07 238.96 C-433.67 238.06 -433.67 238.06 -432 235 C-429.29 233.72 -429.29 233.72 -426.06 232.5 C-422.21 231.04 -419.86 229.88 -417 227 C-414.72 225.77 -412.46 224.61 -410.12 223.5 C-405.97 221.5 -401.92 219.43 -398 217 C-395.25 215.46 -394.23 215 -391 215 C-391 214.34 -391 213.68 -391 213 C-390.02 212.53 -389.05 212.06 -388.04 211.57 C-386.76 210.95 -385.47 210.32 -384.19 209.69 C-383.54 209.38 -382.9 209.07 -382.24 208.75 C-378.96 207.14 -376.55 205.56 -374 203 C-371.72 201.77 -369.46 200.61 -367.12 199.5 C-362.97 197.5 -358.93 195.41 -355 193 C-353.4 192.12 -351.8 191.24 -350.19 190.38 C-345.51 187.84 -340.88 185.24 -336.25 182.62 C-330.96 179.63 -325.63 176.71 -320.25 173.88 C-312.83 169.96 -305.58 165.79 -298.41 161.43 C-296.31 160.18 -294.19 159.09 -292 158 C-290.12 156.91 -288.24 155.8 -286.38 154.69 C-281.86 152.03 -277.3 149.62 -272.59 147.33 C-268.48 145.22 -264.53 142.83 -260.57 140.45 C-258 139 -258 139 -255 138 C-254.67 137.34 -254.34 136.68 -254 136 C-251.09 134.67 -248.16 133.47 -245.19 132.3 C-241.8 130.91 -239.5 129.63 -237 127 C-235.09 125.97 -233.15 124.99 -231.19 124.06 C-226.86 121.96 -222.94 119.76 -219 117 C-216.23 115.42 -215.26 115 -212 115 C-212 114.34 -212 113.68 -212 113 C-210.06 112.02 -208.13 111.04 -206.19 110.06 C-205.11 109.52 -204.03 108.97 -202.92 108.41 C-200 107 -200 107 -197 106 C-196.34 105.01 -195.68 104.02 -195 103 C-192.68 101.79 -192.68 101.79 -189.88 100.62 C-185.68 98.8 -181.9 96.8 -178.07 94.3 C-171.46 90.13 -164.39 86.67 -157.5 83 C-155.59 81.98 -153.67 80.96 -151.76 79.94 C-150.19 79.1 -148.62 78.27 -147.05 77.44 C-140.92 74.15 -135.01 70.57 -129.14 66.83 C-125.85 64.91 -122.51 63.48 -119 62 C-117.68 61.25 -116.39 60.46 -115.12 59.62 C-112.18 57.74 -109.22 55.92 -106.19 54.19 C-105.46 53.77 -104.73 53.35 -103.98 52.92 C-102 52 -102 52 -99 52 C-99 51.34 -99 50.68 -99 50 C-97.91 49.46 -96.81 48.93 -95.69 48.38 C-88.82 44.94 -82.13 41.2 -75.44 37.44 C-71.36 35.15 -67.19 33.11 -62.97 31.11 C-60.84 30.15 -60.84 30.15 -60 28 C-57.89 26.89 -55.73 25.86 -53.56 24.88 C-52.39 24.34 -51.21 23.8 -50 23.24 C-47 22 -47 22 -45 22 C-44.67 21.01 -44.34 20.02 -44 19 C-41.67 17.75 -41.67 17.75 -38.75 16.56 C-34.58 14.77 -31.52 12.87 -28 10 C-25.85 8.97 -23.66 8.06 -21.46 7.15 C-18.79 5.9 -16.46 4.38 -14 2.75 C-9.45 -0.04 -5.28 -1.51 0 0 Z " fill="#000002" transform="translate(631,63)"/>
<path d="M0 0 C1.12 -0.01 2.24 -0.01 3.4 -0.02 C7.17 -0.03 10.94 -0.02 14.71 -0.01 C17.41 -0.02 20.1 -0.02 22.8 -0.03 C29.38 -0.05 35.95 -0.04 42.53 -0.03 C47.87 -0.02 53.21 -0.02 58.56 -0.03 C59.32 -0.03 60.08 -0.03 60.86 -0.03 C62.41 -0.03 63.95 -0.03 65.5 -0.03 C79.99 -0.04 94.48 -0.03 108.97 -0.01 C121.4 0.01 133.83 0 146.26 -0.01 C160.7 -0.03 175.13 -0.04 189.57 -0.03 C191.11 -0.03 192.65 -0.03 194.19 -0.03 C195.32 -0.03 195.32 -0.03 196.48 -0.03 C201.82 -0.02 207.15 -0.03 212.49 -0.04 C218.99 -0.05 225.5 -0.05 232.01 -0.02 C235.32 -0.01 238.64 -0.01 241.96 -0.02 C245.56 -0.03 249.16 -0.02 252.76 0 C254.33 -0.01 254.33 -0.01 255.93 -0.03 C262.2 0.04 265.84 0.91 271.01 4.51 C272.65 5.41 274.29 6.31 275.94 7.2 C281.19 10.05 286.4 12.97 291.6 15.91 C296.77 18.82 301.95 21.7 307.13 24.57 C312.59 27.6 318.03 30.65 323.44 33.76 C328.23 36.51 333.05 39.19 337.91 41.82 C341.89 43.99 345.85 46.18 349.82 48.38 C350.59 48.81 351.37 49.24 352.17 49.69 C356.93 52.33 361.66 55.03 366.38 57.76 C372.47 61.26 378.68 64.45 385.01 67.51 C385.01 68.17 385.01 68.83 385.01 69.51 C385.87 69.7 385.87 69.7 386.75 69.89 C389.04 70.52 391 71.34 393.13 72.38 C394.16 72.87 394.16 72.87 395.2 73.38 C397.01 74.51 397.01 74.51 399.01 77.51 C399.2 80.26 399.27 82.9 399.25 85.65 C399.25 86.91 399.25 86.91 399.25 88.2 C399.25 91.02 399.24 93.84 399.23 96.67 C399.23 98.69 399.23 100.71 399.23 102.73 C399.23 108.22 399.22 113.71 399.21 119.21 C399.2 124.95 399.19 130.68 399.19 136.42 C399.19 147.29 399.17 158.16 399.15 169.03 C399.13 181.4 399.12 193.77 399.11 206.14 C399.09 231.6 399.05 257.05 399.01 282.51 C398.24 282.84 397.48 283.18 396.69 283.53 C395.2 284.2 395.2 284.2 393.67 284.88 C392.68 285.32 391.69 285.76 390.67 286.21 C387.74 287.64 385.52 289.45 383.01 291.51 C381.69 292.12 380.35 292.7 379.01 293.26 C373.72 295.48 369.02 298.51 364.22 301.61 C360.87 303.59 357.59 305.01 354.01 306.51 C352.67 307.5 351.33 308.5 350.01 309.51 C342.16 314.82 333.8 314.08 324.69 314.04 C322.91 314.04 321.13 314.05 319.34 314.06 C314.45 314.08 309.55 314.08 304.66 314.07 C299.38 314.07 294.1 314.09 288.82 314.11 C278.47 314.14 268.13 314.15 257.79 314.14 C249.38 314.14 240.97 314.15 232.56 314.16 C206.11 314.19 179.67 314.2 153.22 314.19 C132.36 314.19 111.51 314.22 90.65 314.26 C69.23 314.31 47.81 314.33 26.39 314.33 C14.37 314.33 2.35 314.33 -9.67 314.37 C-19.91 314.4 -30.15 314.41 -40.39 314.38 C-45.61 314.37 -50.83 314.37 -56.05 314.4 C-60.83 314.42 -65.62 314.42 -70.4 314.39 C-72.13 314.38 -73.85 314.39 -75.58 314.4 C-86.99 314.52 -94.33 313.04 -103.99 306.51 C-108.03 303.79 -111.99 301.4 -116.37 299.26 C-117.43 298.74 -118.49 298.22 -119.58 297.68 C-120.38 297.29 -121.17 296.91 -121.99 296.51 C-121.99 295.85 -121.99 295.19 -121.99 294.51 C-122.58 294.38 -123.16 294.25 -123.76 294.12 C-125.94 293.52 -127.78 292.76 -129.81 291.76 C-130.43 291.45 -131.06 291.15 -131.7 290.84 C-132.46 290.4 -133.21 289.96 -133.99 289.51 C-134.85 289.05 -134.85 289.05 -135.72 288.59 C-137.73 287.37 -139.36 286.2 -140.99 284.51 C-141.71 281.32 -141.93 279.14 -141.86 275.95 C-141.87 275.09 -141.88 274.24 -141.89 273.35 C-141.91 270.47 -141.88 267.59 -141.85 264.71 C-141.86 262.65 -141.86 260.58 -141.87 258.52 C-141.89 252.91 -141.87 247.3 -141.84 241.69 C-141.81 235.83 -141.81 229.97 -141.82 224.11 C-141.82 214.26 -141.79 204.42 -141.74 194.57 C-141.69 183.18 -141.68 171.79 -141.68 160.4 C-141.69 149.45 -141.67 138.5 -141.65 127.56 C-141.63 122.89 -141.63 118.23 -141.63 113.56 C-141.63 108.08 -141.61 102.59 -141.57 97.1 C-141.56 95.08 -141.56 93.06 -141.57 91.05 C-141.57 88.3 -141.55 85.55 -141.52 82.81 C-141.53 82 -141.54 81.2 -141.54 80.37 C-141.45 74.98 -141.45 74.98 -139.09 72.56 C-138.4 72.22 -137.71 71.87 -136.99 71.51 C-136 70.91 -136 70.91 -134.99 70.3 C-134.29 69.91 -133.59 69.53 -132.87 69.13 C-131.71 68.49 -131.71 68.49 -130.52 67.84 C-127.04 66.01 -123.51 64.3 -119.96 62.62 C-117.84 61.66 -117.84 61.66 -116.99 59.51 C-115.67 59.51 -114.35 59.51 -112.99 59.51 C-112.99 58.85 -112.99 58.19 -112.99 57.51 C-111.54 56.84 -110.08 56.17 -108.62 55.51 C-107.81 55.14 -107 54.77 -106.16 54.38 C-103.99 53.51 -103.99 53.51 -101.99 53.51 C-101.66 52.52 -101.33 51.53 -100.99 50.51 C-98.77 49.3 -98.77 49.3 -95.93 48.13 C-91.6 46.27 -87.68 44.23 -83.75 41.62 C-80.67 39.67 -78.71 38.51 -74.99 38.51 C-74.99 37.85 -74.99 37.19 -74.99 36.51 C-72.7 35.34 -70.41 34.17 -68.12 33.01 C-67.47 32.67 -66.82 32.34 -66.15 32 C-61.22 29.51 -61.22 29.51 -58.99 29.51 C-58.5 28.02 -58.5 28.02 -57.99 26.51 C-55.67 25.26 -55.67 25.26 -52.74 24.07 C-48.59 22.29 -45.48 20.41 -41.99 17.51 C-38.68 15.77 -35.8 14.51 -31.99 14.51 C-31.99 13.85 -31.99 13.19 -31.99 12.51 C-30.9 11.98 -29.8 11.45 -28.67 10.9 C-27.22 10.19 -25.76 9.47 -24.31 8.76 C-23.59 8.41 -22.86 8.06 -22.12 7.7 C-21.06 7.18 -21.06 7.18 -19.98 6.65 C-19.34 6.33 -18.69 6.02 -18.03 5.7 C-15.86 4.56 -15.86 4.56 -14.05 2.47 C-9.48 -0.46 -5.32 -0.05 0 0 Z " fill="#FAFCFC" transform="translate(498.9942321777344,146.4920654296875)"/>
<path d="M0 0 C1.27 0.63 2.55 1.27 3.82 1.9 C4.53 2.26 5.24 2.61 5.97 2.98 C8.49 4.25 10.97 5.58 13.44 6.94 C14.28 7.4 15.13 7.86 16 8.34 C18.41 9.67 20.82 11.01 23.23 12.35 C28.1 15.06 32.99 17.75 37.88 20.44 C38.75 20.92 39.63 21.41 40.54 21.91 C44.99 24.36 49.46 26.79 53.94 29.19 C59.07 31.97 64.01 35.06 68.96 38.17 C71.91 39.95 74.9 41.49 78 43 C88.03 48.14 97.75 53.73 107.41 59.52 C111.87 62.19 116.31 64.75 121 67 C130.91 72.08 140.52 77.59 150.06 83.34 C155.27 86.46 160.51 89.33 165.99 91.93 C168 93 168 93 170 95 C171.63 95.68 173.26 96.35 174.89 97.02 C178.21 98.56 181.24 100.53 184.36 102.44 C188.45 104.86 192.71 106.94 197 109 C197 109.66 197 110.32 197 111 C197.56 111.08 198.11 111.16 198.69 111.25 C201.96 112.31 203.61 113.49 206 116 C206.75 118.98 206.66 121.9 206.62 124.96 C206.62 126.34 206.62 126.34 206.63 127.74 C206.65 130.85 206.62 133.95 206.6 137.06 C206.6 139.3 206.61 141.54 206.61 143.77 C206.63 149.95 206.61 156.12 206.58 162.29 C206.56 168.25 206.57 174.22 206.57 180.18 C206.58 192.39 206.56 204.59 206.53 216.8 C206.5 228.89 206.48 240.97 206.47 253.06 C206.47 253.81 206.47 254.56 206.47 255.34 C206.47 259.15 206.47 262.97 206.47 266.78 C206.46 293.81 206.42 320.84 206.38 347.87 C206.33 374.13 206.3 400.39 206.27 426.65 C206.27 427.46 206.27 428.27 206.27 429.1 C206.27 437.23 206.26 445.36 206.25 453.48 C206.24 470.04 206.23 486.6 206.21 503.15 C206.21 504.29 206.21 504.29 206.21 505.46 C206.16 556.31 206.08 607.15 206 658 C205.34 657.34 204.68 656.68 204 656 C204.33 655.34 204.66 654.68 205 654 C203.68 654.66 202.36 655.32 201 656 C201 655.34 201 654.68 201 654 C199.38 653.46 197.76 652.92 196.13 652.39 C191.67 650.83 188.7 648.98 185 646 C182.76 644.93 180.49 643.97 178.21 643.01 C176 642 176 642 172.75 639.81 C170.04 638.02 168.19 637.38 165 637 C165 636.34 165 635.68 165 635 C164.26 634.9 163.51 634.79 162.75 634.69 C159.75 633.94 158.37 632.93 156 631 C153.39 629.26 151.47 628.09 148.38 627.5 C146 627 146 627 144.64 625.61 C142.68 623.69 140.83 622.87 138.31 621.81 C137.5 621.47 136.7 621.12 135.86 620.77 C135.25 620.52 134.63 620.26 134 620 C134 619.34 134 618.68 134 618 C133.43 617.87 132.85 617.75 132.26 617.62 C129.95 616.99 128.01 616.14 125.88 615.06 C125.19 614.72 124.51 614.38 123.8 614.04 C122 613 122 613 120 611 C118.58 610.29 118.58 610.29 117.12 609.56 C114 608 114 608 112.06 606.5 C109.9 604.81 109.9 604.81 106.62 603.56 C103 602 103 602 99.94 599.94 C97 598 94.37 596.96 91 596 C91 595.34 91 594.68 91 594 C90.46 593.9 89.92 593.81 89.36 593.71 C86.33 592.8 83.95 591.32 81.25 589.69 C77.67 587.55 74.12 585.5 70.38 583.69 C67 582 67 582 65 580 C63.58 579.31 62.14 578.67 60.69 578.06 C57.28 576.59 54.16 574.96 51 573 C49.01 571.98 47.01 570.98 45 570 C45 569.34 45 568.68 45 568 C44.34 567.94 43.68 567.88 43 567.81 C39.49 566.86 37.06 565.24 34.04 563.26 C31.83 561.82 31.83 561.82 28.5 560.5 C25.05 559.02 22.11 557.28 18.96 555.25 C15.28 552.9 11.45 550.78 7.6 548.71 C6.78 548.27 5.97 547.83 5.12 547.38 C4.36 546.97 3.6 546.57 2.82 546.15 C1 545 1 545 0 543 C-0.1 540.08 -0.13 537.19 -0.12 534.27 C-0.12 533.35 -0.13 532.44 -0.13 531.49 C-0.13 528.37 -0.12 525.26 -0.12 522.15 C-0.12 519.9 -0.12 517.66 -0.12 515.42 C-0.13 509.23 -0.12 503.05 -0.12 496.86 C-0.11 490.88 -0.11 484.91 -0.11 478.93 C-0.12 466.69 -0.11 454.46 -0.11 442.23 C-0.1 430.11 -0.1 417.99 -0.09 405.88 C-0.09 405.12 -0.09 404.37 -0.09 403.59 C-0.09 399.77 -0.09 395.95 -0.09 392.13 C-0.09 365.04 -0.08 337.95 -0.08 310.85 C-0.07 284.53 -0.06 258.21 -0.05 231.88 C-0.05 231.07 -0.05 230.26 -0.05 229.43 C-0.05 221.28 -0.05 213.14 -0.05 204.99 C-0.05 188.4 -0.05 171.81 -0.04 155.22 C-0.04 154.46 -0.04 153.69 -0.04 152.91 C-0.03 101.94 -0.02 50.97 0 0 Z " fill="#7E7E7E" transform="translate(415,474)"/>
<path d="M0 0 C0.09 51.71 0.17 103.42 0.21 155.13 C0.21 155.9 0.21 156.66 0.21 157.45 C0.23 174.08 0.24 190.7 0.26 207.32 C0.26 215.47 0.27 223.62 0.27 231.77 C0.28 232.59 0.28 233.4 0.28 234.23 C0.3 260.54 0.34 286.85 0.38 313.16 C0.43 340.19 0.46 367.21 0.47 394.24 C0.47 398.06 0.47 401.87 0.47 405.69 C0.47 406.81 0.47 406.81 0.48 407.96 C0.48 420.06 0.5 432.16 0.53 444.27 C0.56 456.42 0.57 468.58 0.57 480.74 C0.56 487.33 0.57 493.92 0.6 500.51 C0.62 506.53 0.62 512.56 0.6 518.59 C0.6 520.77 0.61 522.96 0.62 525.15 C0.64 528.11 0.63 531.07 0.62 534.03 C0.63 534.89 0.64 535.75 0.66 536.64 C0.57 542.39 0.57 542.39 -2.32 545.46 C-5.45 547.26 -8.66 548.63 -12 550 C-14.3 551.3 -16.52 552.69 -18.73 554.12 C-25.4 558.39 -32.48 562.43 -40 565 C-40.66 564.67 -41.32 564.34 -42 564 C-41.67 564.99 -41.34 565.98 -41 567 C-41.66 567.33 -42.33 567.65 -43.01 567.99 C-48.33 570.6 -48.33 570.6 -53.5 573.5 C-55.79 574.88 -58.09 576.03 -60.5 577.19 C-65.84 579.81 -70.82 582.93 -75.82 586.13 C-78.16 587.51 -80.27 588.59 -82.75 589.62 C-86.01 590.82 -86.01 590.82 -88.31 592.94 C-90.87 594.9 -92.77 595.77 -95.75 596.88 C-100.19 598.56 -103.77 600.71 -107.65 603.43 C-111.91 606.28 -116.48 608.59 -121 611 C-122.59 611.87 -124.17 612.75 -125.75 613.62 C-126.48 614.03 -127.2 614.43 -127.95 614.85 C-129.83 615.9 -131.7 616.98 -133.56 618.06 C-136.79 619.88 -140.05 621.5 -143.4 623.07 C-145.18 623.91 -145.18 623.91 -146 626 C-148.14 627.04 -148.14 627.04 -150.81 628.06 C-151.69 628.4 -152.56 628.75 -153.46 629.1 C-156 630 -156 630 -158.26 630.43 C-158.84 630.62 -159.41 630.81 -160 631 C-160.33 631.99 -160.66 632.98 -161 634 C-163.4 635.39 -163.4 635.39 -166.38 636.69 C-167.84 637.34 -167.84 637.34 -169.34 638.01 C-172 639 -172 639 -175 639 C-175.34 639.91 -175.34 639.91 -175.68 640.85 C-177.42 643.69 -179.06 644.2 -182.12 645.44 C-185.77 646.98 -189.08 648.57 -192.38 650.75 C-195.26 652.65 -197.55 653.49 -201 654 C-201.66 654.66 -202.32 655.32 -203 656 C-204.2 651.71 -204.14 647.53 -204.13 643.1 C-204.14 642.19 -204.14 641.27 -204.14 640.33 C-204.15 637.25 -204.15 634.17 -204.15 631.08 C-204.15 628.86 -204.15 626.64 -204.16 624.41 C-204.17 618.28 -204.17 612.15 -204.17 606.03 C-204.18 600.1 -204.19 594.18 -204.19 588.25 C-204.22 572.38 -204.23 556.5 -204.23 540.63 C-204.24 533.12 -204.24 525.61 -204.25 518.11 C-204.27 492.42 -204.28 466.73 -204.29 441.05 C-204.29 439.44 -204.29 437.82 -204.29 436.21 C-204.29 435.41 -204.29 434.61 -204.29 433.79 C-204.29 429.74 -204.29 425.68 -204.3 421.63 C-204.3 420.83 -204.3 420.02 -204.3 419.2 C-204.3 393.11 -204.33 367.02 -204.36 340.93 C-204.39 313.36 -204.41 285.79 -204.42 258.22 C-204.42 255.2 -204.42 252.17 -204.42 249.15 C-204.42 248.41 -204.42 247.66 -204.42 246.89 C-204.42 234.89 -204.44 222.89 -204.46 210.89 C-204.48 198.84 -204.48 186.78 -204.47 174.73 C-204.47 168.2 -204.47 161.66 -204.49 155.13 C-204.51 149.15 -204.51 143.18 -204.49 137.2 C-204.49 135.04 -204.49 132.87 -204.51 130.7 C-204.52 127.77 -204.51 124.83 -204.49 121.9 C-204.51 121.05 -204.52 120.19 -204.53 119.31 C-204.48 115.66 -204.33 113.45 -202.16 110.44 C-200 109 -200 109 -197 109 C-197 108.34 -197 107.68 -197 107 C-196.09 106.65 -195.18 106.3 -194.25 105.94 C-189.58 103.95 -185.31 101.3 -180.95 98.71 C-178.44 97.26 -175.93 95.94 -173.31 94.69 C-169.95 93.39 -169.95 93.39 -169 91 C-166.68 90.59 -164.34 90.26 -162 90 C-162 89.34 -162 88.68 -162 88 C-158.48 85.95 -154.98 83.96 -151.31 82.19 C-147.77 80.45 -144.39 78.5 -141 76.5 C-128.24 69 -128.24 69 -124 69 C-123.5 67.51 -123.5 67.51 -123 66 C-121.68 66 -120.36 66 -119 66 C-119 65.34 -119 64.68 -119 64 C-118.35 63.69 -117.7 63.37 -117.02 63.05 C-112.1 60.64 -107.54 58.09 -103 55 C-99.33 52.98 -96.16 51.61 -92 51 C-92 50.34 -92 49.68 -92 49 C-89.35 47.54 -88.11 47 -85 47 C-85 46.34 -85 45.68 -85 45 C-81.63 42.57 -80.27 42 -76 42 C-76 41.34 -76 40.68 -76 40 C-75.01 40 -74.02 40 -73 40 C-73 39.34 -73 38.68 -73 38 C-72.01 37.61 -71.02 37.22 -70 36.81 C-66.43 35.29 -63.29 33.35 -60.04 31.25 C-57.45 29.66 -54.75 28.36 -52.02 27.05 C-49.15 25.56 -46.52 23.78 -43.86 21.95 C-42 21 -42 21 -38 21 C-38 20.34 -38 19.68 -38 19 C-35.09 16.96 -33.6 16 -30 16 C-30 15.34 -30 14.68 -30 14 C-28.68 14 -27.36 14 -26 14 C-26 13.34 -26 12.68 -26 12 C-24.02 11.67 -22.04 11.34 -20 11 C-20 10.34 -20 9.68 -20 9 C-17.94 7.87 -15.88 6.75 -13.81 5.62 C-12.66 5 -11.52 4.37 -10.33 3.73 C-3.14 0 -3.14 0 0 0 Z " fill="#7E7E7E" transform="translate(834,475)"/>
<path d="M0 0 C2.64 0.66 5.28 1.32 8 2 C8 2.66 8 3.32 8 4 C8.51 4.09 9.03 4.18 9.56 4.27 C12.97 5.29 15.96 6.99 19.06 8.69 C19.73 9.05 20.4 9.41 21.08 9.78 C22.43 10.51 23.78 11.24 25.12 11.98 C26.75 12.86 28.38 13.74 30.01 14.62 C34.75 17.17 39.42 19.82 44.06 22.56 C49.26 25.62 54.56 28.39 60 31 C60 31.66 60 32.32 60 33 C60.87 33.18 60.87 33.18 61.75 33.37 C64.09 34.02 65.84 34.91 67.94 36.12 C71.78 38.32 75.66 40.42 79.56 42.5 C83.25 44.47 86.86 46.48 90.38 48.75 C92.76 50.29 94.85 51.36 97.5 52.5 C100.88 53.95 103.71 55.64 106.79 57.62 C110.1 59.68 113.54 61.5 116.97 63.34 C120.22 65.12 123.42 66.96 126.62 68.81 C134 73.06 141.53 77.02 149.06 80.98 C155.57 84.41 161.89 87.88 168 92 C170.14 93.18 172.29 94.33 174.46 95.46 C175.72 96.22 175.72 96.22 177 97 C177.65 97.38 178.3 97.75 178.96 98.14 C184.54 101.75 184.54 101.75 185.74 105.02 C186.02 107.45 186.04 109.77 185.98 112.22 C185.99 113.14 186 114.07 186.01 115.02 C186.03 118.12 186 121.23 185.96 124.34 C185.97 126.58 185.97 128.83 185.98 131.07 C186 137.25 185.97 143.43 185.93 149.6 C185.9 155.58 185.9 161.55 185.91 167.53 C185.92 179.75 185.89 191.97 185.85 204.2 C185.8 216.3 185.77 228.4 185.76 240.5 C185.76 241.26 185.76 242.01 185.76 242.78 C185.75 246.6 185.75 250.43 185.75 254.25 C185.73 281.31 185.68 308.38 185.6 335.45 C185.53 361.74 185.47 388.04 185.44 414.33 C185.44 415.15 185.44 415.96 185.44 416.79 C185.43 424.93 185.42 433.07 185.41 441.21 C185.39 457.79 185.36 474.37 185.34 490.95 C185.34 491.71 185.34 492.47 185.34 493.26 C185.26 544.17 185.13 595.09 185 646 C184.34 644.68 183.68 643.36 183 642 C182.24 642.21 181.47 642.41 180.69 642.62 C178 643 178 643 175 641 C175 640.34 175 639.68 175 639 C174.39 638.81 173.77 638.61 173.14 638.41 C171.92 638.02 171.92 638.02 170.69 637.62 C169.89 637.37 169.09 637.11 168.26 636.85 C166 636 166 636 163 634 C163 633.34 163 632.68 163 632 C162.44 631.88 161.88 631.77 161.3 631.65 C158.71 630.92 156.52 629.86 154.12 628.62 C153.25 628.18 152.37 627.73 151.46 627.27 C150.65 626.85 149.84 626.43 149 626 C147.91 625.46 146.81 624.93 145.69 624.38 C143.98 623.5 142.3 622.58 140.65 621.59 C138.09 620.05 135.5 618.61 132.88 617.19 C131.44 616.4 131.44 616.4 129.97 615.61 C128.03 614.56 126.1 613.52 124.16 612.49 C119.76 610.13 115.53 607.74 111.44 604.88 C108.38 602.77 105.48 601.3 102 600 C97.65 598.38 94.16 596.24 90.37 593.59 C85.48 590.31 80.22 587.55 74.93 585 C72.79 583.89 70.91 582.58 68.94 581.19 C65.6 578.93 62.32 577.16 58.62 575.56 C53.56 573.37 49.08 570.63 44.51 567.55 C42.06 566.04 39.68 565.04 37 564 C36.01 563.34 35.02 562.68 34 562 C34 561.34 34 560.68 34 560 C33.3 559.9 32.6 559.79 31.88 559.69 C24.79 557.99 18.35 553.49 12 550 C12 549.34 12 548.68 12 548 C11.26 548.07 10.53 548.13 9.77 548.2 C6.33 547.95 5.23 547.19 2.75 544.83 C-3.55 537.18 -2.08 527.14 -1.97 517.77 C-1.97 515.57 -1.98 513.37 -1.99 511.18 C-2.01 505.14 -1.98 499.11 -1.94 493.08 C-1.91 486.57 -1.92 480.07 -1.93 473.56 C-1.94 462.29 -1.92 451.01 -1.88 439.74 C-1.83 427.91 -1.8 416.08 -1.8 404.26 C-1.8 403.52 -1.8 402.79 -1.8 402.03 C-1.79 398.29 -1.79 394.55 -1.79 390.82 C-1.78 364.35 -1.73 337.88 -1.66 311.41 C-1.59 285.72 -1.54 260.02 -1.51 234.33 C-1.51 233.54 -1.51 232.75 -1.51 231.93 C-1.51 224.77 -1.5 217.61 -1.49 210.45 C-1.47 181.55 -1.42 152.64 -1.38 123.74 C-1.38 123.01 -1.38 122.27 -1.38 121.52 C-1.35 102.42 -1.31 83.33 -1.26 64.23 C-1.25 59.11 -1.24 54 -1.23 48.88 C-1.22 42.99 -1.2 37.11 -1.18 31.22 C-1.18 29.09 -1.17 26.96 -1.17 24.82 C-1.17 21.93 -1.16 19.04 -1.15 16.14 C-1.15 15.31 -1.15 14.48 -1.15 13.62 C-1.12 8.98 -0.77 4.58 0 0 Z " fill="#7E7E7E" transform="translate(165,336)"/>
<path d="M0 0 C0.99 0.5 0.99 0.5 2 1 C1.99 52.63 1.97 104.26 1.93 155.89 C1.92 157.04 1.92 157.04 1.92 158.2 C1.91 174.8 1.89 191.39 1.87 207.99 C1.86 216.13 1.86 224.26 1.85 232.4 C1.85 233.21 1.85 234.02 1.84 234.86 C1.82 261.12 1.81 287.39 1.8 313.66 C1.8 340.64 1.78 367.63 1.74 394.61 C1.74 398.42 1.73 402.22 1.73 406.03 C1.73 406.78 1.72 407.53 1.72 408.3 C1.71 420.39 1.71 432.47 1.72 444.55 C1.72 456.69 1.71 468.83 1.68 480.96 C1.67 487.54 1.66 494.12 1.67 500.7 C1.69 506.72 1.68 512.74 1.65 518.75 C1.64 520.94 1.64 523.12 1.66 525.31 C1.67 528.26 1.65 531.21 1.63 534.17 C1.64 535.03 1.65 535.89 1.67 536.78 C1.63 539.15 1.63 539.15 1 543 C-1.43 545.07 -2.8 546 -6 546 C-6 546.66 -6 547.32 -6 548 C-6.95 548.46 -7.91 548.92 -8.89 549.39 C-10.15 550.01 -11.42 550.63 -12.69 551.25 C-13.31 551.55 -13.94 551.85 -14.58 552.16 C-18.47 554.07 -21.63 556.24 -25 559 C-26.64 559.9 -28.31 560.76 -30 561.56 C-32.57 562.81 -35.05 564.03 -37.5 565.5 C-39.93 566.96 -42.39 568.19 -44.94 569.44 C-47.78 570.84 -50.35 572.24 -53 574 C-56.43 576.29 -59.99 578.04 -63.69 579.85 C-66.07 581 -66.07 581 -68.5 582.5 C-70.93 583.96 -73.39 585.19 -75.94 586.44 C-79.85 588.37 -83.4 590.52 -87 593 C-92.45 596.18 -97.99 599.15 -103.57 602.09 C-107.11 603.96 -110.57 605.93 -114 608 C-115.7 608.92 -117.41 609.81 -119.12 610.69 C-120.4 611.34 -120.4 611.34 -121.7 612.01 C-124 613 -124 613 -127 613 C-126.67 613.66 -126.34 614.32 -126 615 C-126.92 615.45 -127.84 615.89 -128.78 616.36 C-134.77 619.3 -140.63 622.24 -146.22 625.89 C-148.06 627.03 -149.92 627.96 -151.88 628.88 C-155.16 630.46 -158.03 632.37 -161 634.5 C-171.45 642 -171.45 642 -176 642 C-176.66 642.66 -177.32 643.32 -178 644 C-179.03 638.91 -179.14 634.05 -179.13 628.89 C-179.14 627.97 -179.14 627.06 -179.14 626.12 C-179.15 623.05 -179.15 619.99 -179.15 616.92 C-179.15 614.7 -179.15 612.48 -179.16 610.27 C-179.17 604.17 -179.17 598.06 -179.17 591.96 C-179.18 586.06 -179.19 580.16 -179.19 574.26 C-179.22 558.45 -179.23 542.64 -179.23 526.84 C-179.24 519.36 -179.24 511.89 -179.25 504.41 C-179.27 478.83 -179.28 453.25 -179.29 427.67 C-179.29 426.06 -179.29 424.46 -179.29 422.85 C-179.29 422.05 -179.29 421.26 -179.29 420.44 C-179.29 416.4 -179.29 412.37 -179.3 408.34 C-179.3 407.54 -179.3 406.73 -179.3 405.91 C-179.3 379.93 -179.33 353.96 -179.36 327.98 C-179.39 300.52 -179.41 273.06 -179.42 245.6 C-179.42 242.59 -179.42 239.58 -179.42 236.57 C-179.42 235.83 -179.42 235.08 -179.42 234.32 C-179.42 222.37 -179.44 210.42 -179.46 198.47 C-179.48 186.47 -179.48 174.47 -179.47 162.46 C-179.47 155.96 -179.47 149.45 -179.49 142.95 C-179.51 137 -179.51 131.05 -179.49 125.1 C-179.49 122.94 -179.49 120.78 -179.51 118.63 C-179.52 115.7 -179.51 112.78 -179.49 109.86 C-179.51 109.01 -179.52 108.16 -179.53 107.29 C-179.48 103.68 -179.31 101.44 -177.22 98.45 C-175 97 -175 97 -171 97 C-171 96.34 -171 95.68 -171 95 C-170.01 95 -169.02 95 -168 95 C-167.67 94.01 -167.34 93.02 -167 92 C-164.78 90.73 -162.63 89.63 -160.31 88.56 C-155.59 86.35 -151.31 83.97 -147 81 C-143.16 78.85 -141.46 78 -137 78 C-136.5 76.51 -136.5 76.51 -136 75 C-133.4 73.35 -132.14 73 -129 73 C-129 72.34 -129 71.68 -129 71 C-127.97 70.59 -126.94 70.18 -125.88 69.75 C-123.41 68.7 -121.45 67.63 -119.19 66.12 C-115.69 63.8 -112.1 62.01 -108.34 60.16 C-104.71 58.36 -101.37 56.25 -98 54 C-96.68 54 -95.36 54 -94 54 C-94 53.34 -94 52.68 -94 52 C-93.01 52 -92.02 52 -91 52 C-90.67 51.01 -90.34 50.02 -90 49 C-88.68 49 -87.36 49 -86 49 C-86 48.34 -86 47.68 -86 47 C-84.68 47 -83.36 47 -82 47 C-82 46.34 -82 45.68 -82 45 C-79.09 42.96 -77.6 42 -74 42 C-74 41.34 -74 40.68 -74 40 C-73.31 39.75 -72.63 39.49 -71.92 39.23 C-71.02 38.89 -70.12 38.54 -69.19 38.19 C-68.29 37.85 -67.4 37.51 -66.48 37.17 C-64.04 36.02 -62.8 34.95 -61 33 C-57.24 30.84 -55.4 30 -51 30 C-51 29.34 -51 28.68 -51 28 C-50.01 28 -49.02 28 -48 28 C-47.67 27.01 -47.34 26.02 -47 25 C-44.02 23.04 -42.74 23 -39 23 C-39 22.34 -39 21.68 -39 21 C-38.01 21 -37.02 21 -36 21 C-36 20.34 -36 19.68 -36 19 C-32.97 16.77 -29.74 15.5 -26.25 14.19 C-21.66 12.43 -17.94 10.1 -14.01 7.17 C-12 6 -12 6 -8 6 C-8 5.34 -8 4.68 -8 4 C-7.01 4 -6.02 4 -5 4 C-5 3.34 -5 2.68 -5 2 C-3.02 2.5 -3.02 2.5 -1 3 C-0.67 2.01 -0.34 1.02 0 0 Z " fill="#7E7E7E" transform="translate(1084,334)"/>
<path d="M0 0 C0.09 51.82 0.17 103.64 0.21 155.46 C0.21 156.23 0.21 157 0.21 157.79 C0.23 174.44 0.24 191.1 0.26 207.75 C0.26 215.92 0.27 224.09 0.27 232.26 C0.28 233.48 0.28 233.48 0.28 234.72 C0.3 261.08 0.34 287.45 0.38 313.81 C0.43 340.9 0.46 367.98 0.47 395.06 C0.47 398.88 0.47 402.71 0.47 406.53 C0.47 407.28 0.48 408.03 0.48 408.81 C0.48 420.94 0.5 433.06 0.53 445.19 C0.56 457.37 0.57 469.55 0.57 481.74 C0.56 488.34 0.57 494.95 0.6 501.55 C0.62 507.59 0.62 513.63 0.6 519.66 C0.6 521.86 0.61 524.05 0.62 526.24 C0.64 529.21 0.63 532.17 0.62 535.14 C0.63 536 0.64 536.86 0.66 537.76 C0.62 540.14 0.62 540.14 0 544 C-2.41 545.98 -2.41 545.98 -5 547 C-5.7 547.39 -6.4 547.78 -7.12 548.19 C-9 549 -9 549 -12 549 C-12.33 549.99 -12.66 550.98 -13 552 C-14.79 553.11 -14.79 553.11 -17.19 554.19 C-22.88 556.88 -28.26 559.97 -33.7 563.13 C-36.76 564.86 -39.86 566.44 -43 568 C-44.33 568.84 -44.33 568.84 -45.69 569.69 C-48 571 -48 571 -51 571 C-51.33 571.66 -51.66 572.32 -52 573 C-53.32 569.05 -53.14 565.27 -53.12 561.15 C-53.12 560.23 -53.13 559.31 -53.13 558.36 C-53.13 555.25 -53.12 552.14 -53.12 549.02 C-53.12 546.78 -53.12 544.54 -53.12 542.3 C-53.13 536.11 -53.12 529.93 -53.12 523.74 C-53.11 517.77 -53.11 511.79 -53.11 505.81 C-53.12 493.58 -53.11 481.35 -53.11 469.12 C-53.1 457.01 -53.1 444.89 -53.09 432.78 C-53.09 432.03 -53.09 431.28 -53.09 430.5 C-53.09 426.68 -53.09 422.86 -53.09 419.03 C-53.09 391.95 -53.08 364.86 -53.08 337.78 C-53.07 311.46 -53.06 285.15 -53.05 258.83 C-53.05 258.02 -53.05 257.21 -53.05 256.37 C-53.05 248.23 -53.05 240.09 -53.05 231.94 C-53.05 215.35 -53.05 198.77 -53.04 182.18 C-53.04 181.41 -53.04 180.65 -53.04 179.87 C-53.03 128.91 -53.02 77.96 -53 27 C-52.05 26.53 -51.09 26.06 -50.11 25.57 C-48.85 24.95 -47.58 24.32 -46.31 23.69 C-45.37 23.22 -45.37 23.22 -44.42 22.75 C-40.84 20.98 -37.4 19.09 -34 17 C-32.23 16.03 -30.46 15.08 -28.69 14.12 C-25.3 12.29 -21.99 10.4 -18.75 8.31 C-16.33 6.76 -13.97 5.48 -11.31 4.38 C-8.01 3.11 -8.01 3.11 -5.25 1.31 C-3 0 -3 0 0 0 Z " fill="#FAFCFC" transform="translate(896,440)"/>
<path d="M0 0 C5.94 1.6 10.53 3.84 15.54 7.39 C19.27 9.83 23.27 11.68 27.28 13.62 C30.37 15.18 33.14 17.05 36 19 C38.04 20.03 40.09 21.02 42.17 21.97 C44.21 23.12 45.49 24.2 47 26 C47.29 29.02 47.4 31.84 47.37 34.86 C47.37 36.25 47.37 36.25 47.38 37.66 C47.39 40.78 47.37 43.89 47.36 47.01 C47.36 49.26 47.36 51.51 47.37 53.75 C47.38 59.95 47.36 66.14 47.35 72.34 C47.34 78.33 47.34 84.32 47.34 90.3 C47.35 102.56 47.34 114.81 47.32 127.06 C47.3 139.2 47.29 151.34 47.28 163.47 C47.28 164.23 47.28 164.98 47.28 165.76 C47.28 169.59 47.28 173.41 47.28 177.24 C47.27 204.38 47.25 231.51 47.23 258.65 C47.2 285.01 47.18 311.38 47.16 337.74 C47.16 338.56 47.16 339.37 47.16 340.2 C47.16 348.36 47.16 356.52 47.15 364.68 C47.14 381.3 47.14 397.92 47.13 414.54 C47.13 415.3 47.13 416.07 47.13 416.85 C47.1 467.9 47.05 518.95 47 570 C46.34 570 45.68 570 45 570 C45 569.34 45 568.68 45 568 C44.07 567.88 43.14 567.75 42.19 567.62 C39 567 39 567 36 565 C36 564.34 36 563.68 36 563 C35.47 562.9 34.94 562.8 34.39 562.69 C31.3 561.8 28.62 560.4 25.75 558.94 C24.67 558.39 23.59 557.84 22.48 557.28 C21.25 556.65 21.25 556.65 20 556 C20 555.34 20 554.68 20 554 C18.74 553.65 17.48 553.3 16.19 552.94 C10.15 550.95 3.54 547.54 -1 543 C-1.1 540.13 -1.13 537.29 -1.13 534.42 C-1.13 533.5 -1.13 532.58 -1.13 531.64 C-1.13 528.53 -1.13 525.42 -1.13 522.31 C-1.13 520.07 -1.13 517.84 -1.13 515.6 C-1.14 509.43 -1.13 503.25 -1.13 497.08 C-1.13 491.11 -1.13 485.14 -1.13 479.18 C-1.14 466.22 -1.14 453.25 -1.14 440.29 C-1.13 428.95 -1.13 417.6 -1.13 406.26 C-1.13 405.51 -1.13 404.76 -1.13 403.99 C-1.13 400.94 -1.13 397.89 -1.14 394.84 C-1.14 366.21 -1.14 337.58 -1.13 308.96 C-1.13 283.5 -1.13 258.04 -1.13 232.59 C-1.14 204.02 -1.14 175.44 -1.13 146.87 C-1.13 143.83 -1.13 140.78 -1.13 137.74 C-1.13 136.99 -1.13 136.24 -1.13 135.47 C-1.13 124.13 -1.13 112.79 -1.14 101.45 C-1.14 88.56 -1.14 75.68 -1.13 62.79 C-1.13 56.21 -1.13 49.63 -1.13 43.04 C-1.14 37.03 -1.13 31.01 -1.13 25 C-1.13 22.81 -1.13 20.63 -1.13 18.44 C-1.13 15.49 -1.13 12.54 -1.13 9.58 C-1.13 8.72 -1.13 7.85 -1.13 6.96 C-1.11 1.11 -1.11 1.11 0 0 Z " fill="#FAFCFC" transform="translate(359,443)"/>
<path d="M0 0 C4.32 0 8.63 -0.01 12.95 -0.01 C21.38 -0.02 29.81 -0.02 38.24 -0.02 C45.1 -0.02 51.96 -0.02 58.82 -0.03 C78.31 -0.04 97.8 -0.04 117.29 -0.04 C118.86 -0.04 118.86 -0.04 120.47 -0.04 C121.51 -0.04 122.56 -0.04 123.64 -0.04 C140.65 -0.04 157.66 -0.05 174.66 -0.06 C192.17 -0.08 209.68 -0.08 227.19 -0.08 C237 -0.08 246.81 -0.09 256.62 -0.1 C264.97 -0.11 273.32 -0.11 281.67 -0.1 C285.92 -0.1 290.17 -0.1 294.42 -0.11 C327.1 -0.17 327.1 -0.17 342.98 2.15 C340.98 4.15 340.98 4.15 338.66 5.02 C335.91 6.02 335.91 6.02 333.73 7.99 C330.72 10.35 327.56 12.09 324.16 13.83 C322.83 14.53 321.5 15.22 320.18 15.92 C319.49 16.28 318.8 16.64 318.09 17.02 C314.52 18.92 311 20.9 307.48 22.9 C306.51 23.44 306.51 23.44 305.52 24 C301.33 26.37 297.15 28.76 292.98 31.15 C289.73 33 288.97 33.15 284.98 33.15 C284.65 34.14 284.32 35.13 283.98 36.15 C281.5 37.58 281.5 37.58 278.35 39.02 C274.81 40.71 271.51 42.3 268.41 44.71 C264.7 47.56 260.54 49.23 256.23 51.03 C253.83 51.93 253.83 51.93 252.98 54.15 C248.99 56.1 246.45 57.15 241.98 57.15 C241.65 58.14 241.32 59.13 240.98 60.15 C238.5 61.58 238.5 61.58 235.35 63.02 C231.14 65.03 227.46 67.1 223.76 69.92 C220.77 71.97 217.5 73.45 214.25 75.03 C211.9 76.14 211.9 76.14 209.48 77.65 C207.04 79.1 204.58 80.34 202.04 81.58 C199.19 82.99 196.62 84.38 193.98 86.15 C190.57 88.42 187.03 90.13 183.35 91.92 C180.8 93.18 180.8 93.18 177.91 95.21 C175.42 96.85 173.2 97.98 170.48 99.15 C166.65 100.78 163.4 102.77 159.98 105.15 C158.71 105.89 157.44 106.62 156.16 107.33 C153.2 108.83 153.2 108.83 151.98 110.15 C147.75 110.68 144.15 110.98 140.6 108.46 C139.73 107.69 138.87 106.93 137.98 106.15 C135.25 104.8 132.49 103.59 129.69 102.39 C126.98 101.15 124.52 99.71 121.98 98.15 C119.19 96.63 116.4 95.14 113.6 93.65 C110.98 92.15 110.98 92.15 108.91 90.55 C106.8 89.02 105.04 88.41 102.54 87.71 C98.57 86.47 96.23 84.76 92.98 82.15 C89.7 80.66 86.36 79.38 82.98 78.15 C82.98 77.49 82.98 76.83 82.98 76.15 C82.3 75.88 81.61 75.61 80.91 75.33 C71.26 71.43 71.26 71.43 68.98 69.15 C67.33 68.28 65.66 67.45 63.98 66.65 C61.16 65.3 59.19 64.36 56.98 62.15 C55 61.11 52.99 60.12 50.98 59.15 C48.92 58.1 46.86 57.06 44.81 56.01 C42.82 55.03 42.82 55.03 39.98 54.15 C39.98 53.49 39.98 52.83 39.98 52.15 C39.26 51.87 38.55 51.59 37.81 51.31 C35.02 50.16 32.35 48.88 29.66 47.52 C28.34 46.85 28.34 46.85 26.99 46.17 C26.32 45.83 25.66 45.49 24.98 45.15 C24.98 44.49 24.98 43.83 24.98 43.15 C24.05 42.86 24.05 42.86 23.11 42.56 C22.3 42.3 21.5 42.04 20.66 41.77 C19.86 41.52 19.06 41.26 18.24 41 C15.98 40.15 15.98 40.15 12.98 38.15 C6.84 34.27 0.69 30.9 -6.02 28.15 C-6.02 27.49 -6.02 26.83 -6.02 26.15 C-6.79 25.94 -7.55 25.73 -8.34 25.52 C-14.67 23.16 -20.56 19.82 -26.15 16.02 C-28.63 14.4 -30.87 13.29 -33.59 12.15 C-37.25 10.59 -39.96 8.7 -43.02 6.15 C-44.69 5.47 -46.35 4.8 -48.02 4.15 C-49.05 3.17 -50.06 2.18 -51.02 1.15 C-34.03 -0.09 -17.03 -0.01 0 0 Z " fill="#7E7E7E" transform="translate(478.02402925491333,467.8546162843704)"/>
<path d="M0 0 C1.32 0 2.64 0 4 0 C6.5 2.5 6.24 4 6.26 7.41 C6.25 8.17 6.25 8.94 6.24 9.72 C6.24 10.53 6.24 11.33 6.25 12.16 C6.25 14.88 6.24 17.59 6.23 20.31 C6.23 22.25 6.23 24.19 6.23 26.13 C6.23 31.42 6.22 36.7 6.2 41.98 C6.19 47.5 6.19 53.01 6.19 58.53 C6.18 68.98 6.16 79.43 6.14 89.88 C6.12 101.78 6.11 113.68 6.1 125.57 C6.08 150.05 6.04 174.52 6 199 C2 197 -2 195 -6 193 C-6 192.34 -6 191.68 -6 191 C-6.83 190.84 -6.83 190.84 -7.67 190.68 C-10.46 189.87 -12.72 188.62 -15.25 187.19 C-18.55 185.35 -21.85 183.54 -25.25 181.88 C-29.74 179.66 -34.06 177.21 -38.31 174.56 C-41.72 172.58 -45.24 170.89 -48.79 169.18 C-51 168 -51 168 -53 166 C-54.58 165.15 -56.19 164.34 -57.81 163.56 C-61.32 161.85 -64.65 160.01 -68 158 C-69.64 157.18 -71.29 156.37 -72.94 155.56 C-76.85 153.63 -80.37 151.42 -84 149 C-86.59 147.67 -89.2 146.4 -91.83 145.15 C-94 144 -94 144 -96 142 C-98.22 140.86 -100.44 139.76 -102.69 138.69 C-106.66 136.76 -110.51 134.84 -114.06 132.19 C-116.79 130.16 -118.88 129.23 -122 128 C-123.87 127.03 -125.72 126.02 -127.56 125 C-130.68 123.27 -133.8 121.57 -137 120 C-137 119.34 -137 118.68 -137 118 C-137.68 117.92 -138.36 117.83 -139.06 117.75 C-142.14 116.96 -144.53 115.68 -147.23 114.04 C-149.2 112.85 -149.2 112.85 -152.19 111.5 C-155 110 -155 110 -157 107.94 C-159.51 105.51 -161.66 104.98 -165 104 C-167.36 103.05 -169.67 102.02 -172 101 C-172 99.35 -172 97.7 -172 96 C-170.48 95.2 -170.48 95.2 -168.93 94.39 C-167.58 93.68 -166.23 92.96 -164.88 92.25 C-164.21 91.9 -163.54 91.55 -162.86 91.2 C-159.68 89.51 -156.64 87.8 -153.7 85.73 C-151 84 -151 84 -148 84 C-148 83.34 -148 82.68 -148 82 C-146.89 81.92 -145.77 81.83 -144.62 81.75 C-143.43 81.5 -142.23 81.25 -141 81 C-140.3 79.68 -139.63 78.35 -139 77 C-135.88 76.25 -135.88 76.25 -133 76 C-133 75.34 -133 74.68 -133 74 C-129.53 73.01 -129.53 73.01 -126 72 C-126 71.34 -126 70.68 -126 70 C-124.94 69.48 -123.88 68.96 -122.78 68.43 C-115.63 64.91 -108.68 61.37 -102 57 C-99.3 55.48 -98.18 55 -95 55 C-95 54.34 -95 53.68 -95 53 C-93.35 52.67 -91.7 52.34 -90 52 C-90 51.34 -90 50.68 -90 50 C-87.69 49.34 -85.38 48.68 -83 48 C-83 47.34 -83 46.68 -83 46 C-81.57 45.33 -80.13 44.66 -78.69 44 C-77.89 43.63 -77.09 43.26 -76.26 42.88 C-74 42 -74 42 -71 42 C-71 41.34 -71 40.68 -71 40 C-68.85 38.57 -68.85 38.57 -66 37 C-64.62 36.21 -64.62 36.21 -63.21 35.39 C-62.28 34.87 -61.34 34.35 -60.38 33.81 C-59.43 33.28 -58.49 32.75 -57.52 32.21 C-55 31 -55 31 -52 31 C-52 30.34 -52 29.68 -52 29 C-50.35 28.67 -48.7 28.34 -47 28 C-47 27.34 -47 26.68 -47 26 C-45.38 25.16 -43.75 24.33 -42.12 23.5 C-41.22 23.04 -40.32 22.57 -39.38 22.09 C-37 21 -37 21 -35 21 C-35 20.34 -35 19.68 -35 19 C-33.93 18.55 -32.86 18.09 -31.75 17.62 C-29.7 16.75 -27.73 15.86 -25.75 14.81 C-24 14 -24 14 -21 14 C-20.67 13.01 -20.34 12.02 -20 11 C-18.26 9.83 -18.26 9.83 -16.12 8.81 C-15.08 8.3 -15.08 8.3 -14.01 7.77 C-12 7 -12 7 -9 7 C-9 6.34 -9 5.68 -9 5 C-5.63 2.57 -4.27 2 0 2 C0 1.34 0 0.68 0 0 Z " fill="#7F7F7F" transform="translate(344,228)"/>
<path d="M0 0 C0.66 0 1.32 0 2 0 C2 0.66 2 1.32 2 2 C3.09 2.18 3.09 2.18 4.2 2.36 C10.87 3.88 16.83 7.81 22.54 11.48 C25.97 13.6 29.48 15.58 33 17.56 C34 18.13 34 18.13 35.01 18.7 C38.39 20.59 41.77 22.4 45.25 24.09 C48.1 25.49 50.48 27.08 53 29 C56.11 30.57 59.26 32.03 62.42 33.5 C65 35 65 35 66 38 C67.21 38.09 67.21 38.09 68.44 38.19 C73.21 39.28 76.83 41.51 81 44 C82.87 45.11 84.75 46.21 86.62 47.31 C87.62 47.9 88.62 48.49 89.65 49.1 C92.11 50.49 94.56 51.83 97.07 53.12 C97.75 53.48 98.44 53.83 99.14 54.2 C100.49 54.89 101.83 55.57 103.19 56.25 C107.89 58.67 107.89 58.67 109 62 C110.21 62.09 110.21 62.09 111.44 62.19 C117.29 63.52 122.08 66.68 127 70.06 C129.48 71.66 131.68 72.79 134.38 73.94 C138.12 75.54 141.43 77.44 144.84 79.65 C147.3 81.19 149.82 82.56 152.38 83.94 C167.12 91.9 167.12 91.9 173 97 C171.89 97.4 171.89 97.4 170.75 97.81 C168.02 98.85 168.02 98.85 166.12 100.5 C163.29 102.5 160.31 103.06 157 104 C156.67 104.66 156.34 105.32 156 106 C154.35 106.98 152.69 107.95 151 108.88 C149.09 109.95 147.27 111.11 145.44 112.31 C140.62 115.37 135.5 117.78 130.37 120.25 C127.06 121.97 124.08 123.91 121 126 C115.38 129.24 109.63 132.21 103.82 135.08 C101.49 136.26 99.24 137.55 96.98 138.87 C94.49 140.29 91.96 141.64 89.44 143 C86.53 144.58 83.76 146.16 81 148 C77.35 150.43 73.54 152.47 69.68 154.55 C67.51 155.73 65.37 156.94 63.25 158.19 C60 160 60 160 56.44 161.5 C52.94 163.02 50.16 164.87 47 167 C42.17 169.76 37.25 172.36 32.3 174.92 C25.55 178.44 19.25 182.08 13.09 186.6 C10.53 188.31 7.96 189.19 5 190 C4.01 190.99 4.01 190.99 3 192 C2.34 192 1.68 192 1 192 C-0.19 188.42 -0.14 185.18 -0.12 181.46 C-0.12 180.69 -0.12 179.92 -0.12 179.12 C-0.12 176.51 -0.12 173.91 -0.11 171.31 C-0.11 169.45 -0.11 167.58 -0.11 165.72 C-0.11 160.66 -0.11 155.59 -0.1 150.53 C-0.1 145.24 -0.09 139.95 -0.09 134.66 C-0.09 124.64 -0.08 114.63 -0.07 104.61 C-0.06 93.2 -0.06 81.8 -0.05 70.39 C-0.04 46.93 -0.02 23.46 0 0 Z " fill="#7E7E7E" transform="translate(907,229)"/>
<path d="M0 0 C3.22 1.18 5.72 3.02 8.56 4.94 C11.79 6.18 11.79 6.18 14.56 6.94 C14.56 7.6 14.56 8.26 14.56 8.94 C15.43 9.21 16.29 9.47 17.19 9.75 C20.48 10.91 23.47 12.32 26.56 13.94 C26.56 14.6 26.56 15.26 26.56 15.94 C27.68 16.12 27.68 16.12 28.82 16.31 C31.45 16.91 33.19 17.65 35.5 19 C36.66 19.67 36.66 19.67 37.85 20.35 C39.19 21.14 39.19 21.14 40.56 21.94 C42.85 23.25 45.14 24.56 47.44 25.88 C48.03 26.22 48.63 26.56 49.25 26.91 C55.93 30.74 62.65 34.53 69.56 37.94 C69.56 38.6 69.56 39.26 69.56 39.94 C72.53 40.43 72.53 40.43 75.56 40.94 C75.89 41.93 76.22 42.92 76.56 43.94 C77.28 44.05 78 44.16 78.74 44.27 C81.78 44.99 83.98 46.08 86.69 47.62 C87.64 48.16 88.59 48.7 89.57 49.25 C91.05 50.09 91.05 50.09 92.56 50.94 C95.46 52.48 98.35 54.01 101.25 55.54 C103.4 56.84 104.83 58.15 106.56 59.94 C108.55 60.97 110.55 61.97 112.56 62.94 C114.56 64.27 116.56 65.6 118.56 66.94 C90.13 66.96 61.7 66.98 33.26 66.99 C20.06 66.99 6.86 67 -6.34 67.01 C-17.85 67.02 -29.35 67.03 -40.86 67.03 C-46.95 67.03 -53.05 67.04 -59.14 67.04 C-64.87 67.05 -70.61 67.05 -76.34 67.05 C-78.45 67.05 -80.55 67.05 -82.66 67.06 C-85.53 67.06 -88.41 67.06 -91.28 67.06 C-92.53 67.06 -92.53 67.06 -93.8 67.07 C-98.44 67.05 -102.84 66.65 -107.44 65.94 C-110.49 66.02 -110.49 66.02 -113.38 66.38 C-114.81 66.53 -114.81 66.53 -116.28 66.68 C-116.99 66.77 -117.7 66.85 -118.44 66.94 C-115.41 64.33 -113.27 62.9 -109.44 61.94 C-109.11 60.95 -108.78 59.96 -108.44 58.94 C-106.39 57.58 -106.39 57.58 -103.69 56.19 C-102.7 55.67 -101.72 55.16 -100.7 54.63 C-99.63 54.07 -98.55 53.51 -97.44 52.94 C-96.26 52.29 -95.09 51.64 -93.92 50.99 C-92.77 50.36 -91.62 49.72 -90.44 49.06 C-89.37 48.47 -88.29 47.87 -87.19 47.26 C-84.44 45.94 -84.44 45.94 -81.44 45.94 C-81.11 44.95 -80.78 43.96 -80.44 42.94 C-78.26 41.69 -76.15 40.61 -73.88 39.56 C-69.69 37.57 -65.68 35.57 -61.81 33 C-58.44 30.94 -58.44 30.94 -54.44 30.94 C-54.44 30.28 -54.44 29.62 -54.44 28.94 C-53.12 28.94 -51.8 28.94 -50.44 28.94 C-49.94 27.45 -49.94 27.45 -49.44 25.94 C-46.84 24.29 -45.58 23.94 -42.44 23.94 C-42.44 23.28 -42.44 22.62 -42.44 21.94 C-41.12 21.94 -39.8 21.94 -38.44 21.94 C-38.44 21.28 -38.44 20.62 -38.44 19.94 C-37.66 19.56 -36.89 19.19 -36.09 18.8 C-30.73 16.16 -25.52 13.48 -20.51 10.23 C-17.11 8.11 -13.58 6.26 -10.05 4.37 C-8.26 3.38 -6.49 2.34 -4.76 1.25 C-2.44 -0.06 -2.44 -0.06 0 0 Z " fill="#808080" transform="translate(626.4375,72.0625)"/>
<path d="M0 0 C0.75 0 1.51 0.01 2.29 0.01 C4.15 0.03 6.01 0.04 7.88 0.06 C9.32 2.4 9.92 3.64 9.63 6.42 C9.42 7.21 9.22 8 9 8.81 C8.8 9.61 8.59 10.41 8.38 11.23 C8.22 11.84 8.05 12.44 7.88 13.06 C6.88 13.06 5.89 13.06 4.88 13.06 C4.22 16.69 3.56 20.32 2.88 24.06 C1.88 24.06 0.89 24.06 -0.12 24.06 C-0.78 28.35 -1.44 32.64 -2.12 37.06 C-3.12 37.06 -4.11 37.06 -5.12 37.06 C-6.12 40.03 -6.12 40.03 -7.12 43.06 C-7.78 43.06 -8.44 43.06 -9.12 43.06 C-9.08 44.07 -9.04 45.08 -9 46.12 C-9.13 50.24 -9.86 53.18 -11.12 57.06 C-12.12 57.06 -13.11 57.06 -14.12 57.06 C-14.34 58.67 -14.34 58.67 -14.56 60.31 C-15.42 66.02 -15.42 66.02 -16.12 68.06 C-17.12 68.56 -17.12 68.56 -18.12 69.06 C-18.98 72.11 -19.6 75.18 -20.25 78.28 C-21.12 81.06 -21.12 81.06 -24.12 83.06 C-24.85 85.63 -24.85 85.63 -25.12 88.06 C-25.78 88.06 -26.44 88.06 -27.12 88.06 C-27.26 88.88 -27.39 89.7 -27.53 90.55 C-27.7 91.62 -27.88 92.7 -28.06 93.81 C-28.24 94.88 -28.41 95.95 -28.59 97.05 C-29.01 99.43 -29.5 101.73 -30.12 104.06 C-30.78 104.06 -31.45 104.06 -32.12 104.06 C-33.12 108.68 -34.11 113.3 -35.12 118.06 C-36.12 117.57 -36.12 117.57 -37.12 117.06 C-37.78 119.37 -38.45 121.68 -39.12 124.06 C-40.12 123.57 -40.12 123.57 -41.12 123.06 C-42.12 126.36 -43.11 129.66 -44.12 133.06 C-44.78 133.06 -45.45 133.06 -46.12 133.06 C-46.17 133.65 -46.22 134.25 -46.27 134.86 C-46.69 139.25 -47.17 143.03 -49.12 147.06 C-49.78 147.06 -50.45 147.06 -51.12 147.06 C-52.12 151.68 -53.11 156.3 -54.12 161.06 C-55.12 161.06 -56.11 161.06 -57.12 161.06 C-57.12 162.71 -57.12 164.36 -57.12 166.06 C-58.12 166.39 -59.11 166.72 -60.12 167.06 C-60.78 171.35 -61.45 175.64 -62.12 180.06 C-63.12 180.39 -64.11 180.72 -65.12 181.06 C-66.16 184.32 -66.16 184.32 -66.81 188.12 C-67.19 190.06 -67.19 190.06 -67.57 192.04 C-67.76 193.03 -67.94 194.03 -68.12 195.06 C-68.46 194.07 -68.78 193.08 -69.12 192.06 C-69.78 192.06 -70.45 192.06 -71.12 192.06 C-71.46 196.02 -71.78 199.98 -72.12 204.06 C-73.45 204.39 -74.76 204.72 -76.12 205.06 C-76.12 206.71 -76.12 208.36 -76.12 210.06 C-79.1 210.09 -82.08 210.11 -85.06 210.12 C-85.91 210.13 -86.76 210.14 -87.64 210.15 C-88.45 210.15 -89.26 210.16 -90.09 210.16 C-90.84 210.17 -91.59 210.17 -92.36 210.18 C-94.12 210.06 -94.12 210.06 -95.12 209.06 C-95.17 207.4 -95.17 205.73 -95.12 204.06 C-94.13 204.06 -93.14 204.06 -92.12 204.06 C-91.13 197.63 -91.13 197.63 -90.12 191.06 C-88.8 191.06 -87.49 191.06 -86.12 191.06 C-85.79 187.1 -85.47 183.14 -85.12 179.06 C-84.13 179.06 -83.14 179.06 -82.12 179.06 C-81.47 174.44 -80.8 169.82 -80.12 165.06 C-79.79 165.72 -79.47 166.38 -79.12 167.06 C-78.47 167.06 -77.8 167.06 -77.12 167.06 C-76.47 163.76 -75.8 160.46 -75.12 157.06 C-74.63 159.04 -74.63 159.04 -74.12 161.06 C-73.13 156.44 -72.14 151.82 -71.12 147.06 C-70.13 147.06 -69.14 147.06 -68.12 147.06 C-67.13 140.63 -67.13 140.63 -66.12 134.06 C-64.12 135.06 -64.12 135.06 -63.12 136.06 C-62.47 130.78 -61.8 125.5 -61.12 120.06 C-60.13 120.56 -60.13 120.56 -59.12 121.06 C-58.47 117.76 -57.8 114.46 -57.12 111.06 C-56.13 111.56 -56.13 111.56 -55.12 112.06 C-54.94 111.29 -54.76 110.52 -54.57 109.73 C-54.32 108.72 -54.07 107.72 -53.81 106.69 C-53.57 105.69 -53.33 104.69 -53.07 103.66 C-52.12 101.06 -52.12 101.06 -49.12 99.06 C-48.33 96.88 -48.33 96.88 -47.94 94.44 C-47.78 93.62 -47.62 92.8 -47.46 91.96 C-47.35 91.33 -47.24 90.71 -47.12 90.06 C-46.13 90.06 -45.14 90.06 -44.12 90.06 C-45.12 89.73 -46.11 89.4 -47.12 89.06 C-46.63 87.58 -46.63 87.58 -46.12 86.06 C-45.47 85.73 -44.8 85.4 -44.12 85.06 C-43.53 82.76 -43.17 80.45 -42.79 78.09 C-42.57 77.42 -42.35 76.75 -42.12 76.06 C-41.13 75.73 -40.14 75.4 -39.12 75.06 C-39.22 73.64 -39.22 73.64 -39.31 72.19 C-39.22 70.64 -39.22 70.64 -39.12 69.06 C-38.13 68.4 -37.14 67.74 -36.12 67.06 C-35.11 64.42 -35.11 64.42 -34.44 61.44 C-34.06 59.93 -34.06 59.93 -33.68 58.4 C-33.49 57.63 -33.31 56.86 -33.12 56.06 C-32.13 56.06 -31.14 56.06 -30.12 56.06 C-29.98 54.85 -29.84 53.63 -29.69 52.38 C-29.3 49.24 -28.8 46.15 -28.12 43.06 C-27.13 43.06 -26.14 43.06 -25.12 43.06 C-25.12 42.07 -25.12 41.08 -25.12 40.06 C-25.78 39.73 -26.44 39.4 -27.12 39.06 C-26.47 39.06 -25.81 39.06 -25.12 39.06 C-24.79 38.07 -24.47 37.08 -24.12 36.06 C-23.79 36.72 -23.47 37.38 -23.12 38.06 C-22.62 36.34 -22.12 34.61 -21.62 32.88 C-21.35 31.91 -21.07 30.95 -20.78 29.96 C-20.16 27.21 -20 24.87 -20.12 22.06 C-19.13 23.05 -19.13 23.05 -18.12 24.06 C-16.36 19.13 -15.19 14.18 -14.12 9.06 C-13.47 9.06 -12.81 9.06 -12.12 9.06 C-12.46 10.38 -12.78 11.7 -13.12 13.06 C-12.47 13.06 -11.81 13.06 -11.12 13.06 C-11.15 12.01 -11.17 10.96 -11.19 9.88 C-11.14 6.72 -11.01 4.08 -10.12 1.06 C-6.94 -0.53 -3.5 -0.04 0 0 Z " fill="#040406" transform="translate(653.125,204.9375)"/>
<path d="M0 0 C4.75 0.88 4.75 0.88 7 2 C7 2.66 7 3.32 7 4 C7.89 4.1 8.77 4.21 9.69 4.31 C14.82 5.38 19.29 8.29 23 12 C25.01 12.77 27.05 13.48 29.09 14.18 C31 15 31 15 33 17 C34.11 17.47 35.23 17.95 36.38 18.44 C40 20 40 20 42.06 21.56 C44 23.17 44 23.17 46.75 23.81 C49.7 24.89 51.02 25.7 53.38 27.62 C58.03 31.31 63.21 33.74 68.54 36.28 C73.82 38.82 73.82 38.82 76 41 C78.32 42.03 80.65 43.04 83 44 C83.66 44.33 84.32 44.66 85 45 C85 45.66 85 46.32 85 47 C85.66 47.25 86.32 47.5 87 47.75 C92.57 50.07 97.87 52.81 103 56 C103.93 56.37 104.86 56.74 105.81 57.12 C108 59 108 59 108.31 61.19 C108.31 63.48 108.22 65.72 108 68 C106.35 68.33 104.7 68.66 103 69 C104.98 69.99 104.98 69.99 107 71 C104.36 71 101.72 71 99 71 C99 71.99 99 72.98 99 74 C98.36 74.19 97.72 74.39 97.07 74.59 C96.24 74.85 95.41 75.11 94.56 75.38 C93.74 75.63 92.92 75.89 92.07 76.15 C89.82 76.81 89.82 76.81 89 79 C85.92 79.85 82.82 80.48 79.69 81.12 C78.36 81.56 78.36 81.56 77 82 C76.5 83.49 76.5 83.49 76 85 C72.4 86.52 69.95 87 66 87 C66 87.99 66 88.98 66 90 C65.36 90.12 64.72 90.25 64.06 90.38 C63.04 90.68 63.04 90.68 62 91 C61.67 91.66 61.34 92.32 61 93 C58.71 93.88 56.39 94.53 54.03 95.22 C51.81 95.81 51.81 95.81 51 98 C47.92 98.85 44.82 99.48 41.69 100.12 C40.8 100.41 39.91 100.7 39 101 C38.5 102.49 38.5 102.49 38 104 C36.04 104.62 36.04 104.62 33.62 105 C29.99 105.57 28.46 106.28 26 109 C23.06 110.4 21.28 111 18 111 C18 111.99 18 112.98 18 114 C17.4 114.1 16.8 114.21 16.19 114.31 C13.95 114.82 13.95 114.82 12.62 116.44 C10.39 118.59 7.91 119.05 5 120 C4.5 120.99 4.5 120.99 4 122 C2.68 121.67 1.36 121.34 0 121 C0 103 0 103 1 100 C7.43 99.01 7.43 99.01 14 98 C14 97.01 14 96.02 14 95 C14.96 94.84 14.96 94.84 15.93 94.67 C16.76 94.51 17.59 94.35 18.44 94.19 C19.26 94.04 20.08 93.89 20.93 93.73 C21.96 93.37 21.96 93.37 23 93 C23.5 91.51 23.5 91.51 24 90 C25.32 90 26.64 90 28 90 C28.33 88.68 28.66 87.36 29 86 C30.83 85.78 30.83 85.78 32.69 85.56 C35.83 85.17 38.91 84.68 42 84 C42.5 82.51 42.5 82.51 43 81 C47.46 80.5 47.46 80.5 52 80 C52 78.68 52 77.36 52 76 C56.95 75.5 56.95 75.5 62 75 C62.5 73.02 62.5 73.02 63 71 C63.93 70.9 64.86 70.79 65.81 70.69 C68.96 70.33 68.96 70.33 70.38 68.5 C73.1 65.98 76.38 66.3 80 66 C80 64.68 80 63.36 80 62 C78.02 61.5 78.02 61.5 76 61 C76 60.34 76 59.68 76 59 C75.37 58.83 74.75 58.66 74.1 58.48 C73.28 58.24 72.47 58 71.62 57.75 C70.81 57.52 70 57.29 69.16 57.05 C66.51 55.76 66.22 54.6 65 52 C63.39 51.86 61.79 51.73 60.18 51.59 C56.13 50.49 53.08 47.59 49.78 45.07 C44.53 41.16 39.51 38.08 33 37 C33 36.34 33 35.68 33 35 C30.03 34.01 27.06 33.02 24 32 C24 31.34 24 30.68 24 30 C23.3 29.75 22.6 29.5 21.88 29.25 C19 28 19 28 16.12 26 C12.79 23.86 9.79 23.07 6 22 C4.25 20.5 4.25 20.5 3 19 C2.01 18.34 1.02 17.68 0 17 C-0.22 14.05 -0.28 11.32 -0.19 8.38 C-0.17 7.57 -0.16 6.77 -0.15 5.95 C-0.11 3.96 -0.06 1.98 0 0 Z " fill="#030305" transform="translate(695,248)"/>
<path d="M0 0 C0.08 2.79 0.14 5.58 0.19 8.38 C0.21 9.17 0.24 9.96 0.26 10.78 C0.29 12.86 0.15 14.93 0 17 C-3.23 19.15 -4.28 19.2 -8 19 C-8 19.99 -8 20.98 -8 22 C-10.31 22.66 -12.62 23.32 -15 24 C-15 24.99 -15 25.98 -15 27 C-15.64 27.12 -16.28 27.25 -16.94 27.38 C-17.62 27.58 -18.3 27.79 -19 28 C-19.33 28.66 -19.66 29.32 -20 30 C-22.5 30.85 -22.5 30.85 -25.56 31.62 C-26.57 31.89 -27.59 32.15 -28.63 32.41 C-29.41 32.61 -30.19 32.8 -31 33 C-30.34 33.66 -29.68 34.32 -29 35 C-29.63 35.18 -30.25 35.36 -30.9 35.55 C-31.72 35.8 -32.53 36.05 -33.38 36.31 C-34.19 36.56 -35 36.8 -35.84 37.05 C-38.33 37.91 -38.33 37.91 -40 41 C-43.89 42.37 -46.86 43 -51 43 C-51 43.99 -51 44.98 -51 46 C-51.66 46 -52.32 46 -53 46 C-53 46.99 -53 47.98 -53 49 C-53.99 48.5 -53.99 48.5 -55 48 C-54.5 47.01 -54.5 47.01 -54 46 C-54.66 46 -55.32 46 -56 46 C-56 47.32 -56 48.64 -56 50 C-56.57 50.11 -57.13 50.22 -57.71 50.33 C-58.45 50.49 -59.18 50.65 -59.94 50.81 C-60.67 50.96 -61.4 51.11 -62.15 51.27 C-62.76 51.51 -63.37 51.75 -64 52 C-64.33 52.99 -64.66 53.98 -65 55 C-67.31 55.71 -69.58 56.01 -71.97 56.38 C-72.64 56.58 -73.31 56.79 -74 57 C-74.33 57.99 -74.66 58.98 -75 60 C-76.32 60 -77.64 60 -79 60 C-78.5 60.45 -78.01 60.91 -77.5 61.38 C-76 63 -76 63 -76 65 C-75.28 64.92 -74.56 64.83 -73.81 64.75 C-70.13 65.08 -68.78 66.64 -66 69 C-63.32 70.24 -63.32 70.24 -61 71 C-61 71.66 -61 72.32 -61 73 C-60.28 73.11 -59.55 73.23 -58.81 73.35 C-55.9 74.02 -53.69 75.04 -51.06 76.44 C-47.43 78.31 -43.92 79.82 -40 81 C-39.34 81.33 -38.68 81.66 -38 82 C-38 82.66 -38 83.32 -38 84 C-35.36 84.33 -32.72 84.66 -30 85 C-30 85.66 -30 86.32 -30 87 C-29.22 87.29 -28.43 87.58 -27.62 87.88 C-25 89 -25 89 -23 91 C-19.72 92.08 -16.4 92.98 -13.07 93.9 C-10.09 94.97 -9.04 95.72 -7 98 C-5.97 98.33 -4.94 98.66 -3.88 99 C-2.93 99.33 -1.98 99.66 -1 100 C0.25 103.76 0.11 107.27 0.06 111.19 C0.06 111.94 0.05 112.69 0.05 113.46 C0.04 115.31 0.02 117.15 0 119 C-1.42 118.72 -2.83 118.42 -4.25 118.12 C-5.04 117.96 -5.83 117.8 -6.64 117.63 C-11.3 116.38 -15.12 113.82 -19 111 C-19 110.34 -19 109.68 -19 109 C-21.64 108.67 -24.28 108.34 -27 108 C-27 107.34 -27 106.68 -27 106 C-27.69 105.82 -28.37 105.64 -29.08 105.45 C-29.98 105.2 -30.88 104.95 -31.81 104.69 C-32.71 104.44 -33.6 104.2 -34.52 103.95 C-37 103 -37 103 -38.51 101.49 C-41.03 98.98 -44.35 98.68 -47.72 97.84 C-50 97 -50 97 -52 94 C-53.66 93.64 -55.33 93.3 -57 93 C-57.33 92.34 -57.66 91.68 -58 91 C-58.99 91.5 -58.99 91.5 -60 92 C-60 91.34 -60 90.68 -60 90 C-60.78 89.69 -61.57 89.38 -62.38 89.06 C-65 88 -65 88 -67 87 C-67 86.34 -67 85.68 -67 85 C-67.85 84.92 -68.69 84.83 -69.56 84.75 C-73.07 83.98 -75.24 82.83 -78.25 80.99 C-80.72 79.59 -83.29 78.79 -86 78 C-86 77.34 -86 76.68 -86 76 C-86.96 75.82 -86.96 75.82 -87.93 75.63 C-88.76 75.47 -89.59 75.3 -90.44 75.12 C-91.26 74.96 -92.08 74.8 -92.93 74.63 C-93.62 74.42 -94.3 74.22 -95 74 C-95.33 73.34 -95.66 72.68 -96 72 C-96.99 72.5 -96.99 72.5 -98 73 C-98.33 72.34 -98.66 71.68 -99 71 C-100.76 69.98 -102.52 68.96 -104.31 68 C-106 67 -106 67 -108 65 C-108.27 62.31 -108.09 59.71 -108 57 C-104.63 55.5 -102.8 55 -99 55 C-98.67 54.34 -98.34 53.68 -98 53 C-97.34 53.33 -96.68 53.66 -96 54 C-96 53.01 -96 52.02 -96 51 C-92.54 50.5 -92.54 50.5 -89 50 C-88.67 48.68 -88.34 47.36 -88 46 C-86.68 46 -85.36 46 -84 46 C-84 45.01 -84 44.02 -84 43 C-83.16 42.83 -82.31 42.66 -81.45 42.48 C-80.35 42.24 -79.25 42 -78.12 41.75 C-76.49 41.4 -76.49 41.4 -74.82 41.05 C-71.88 40.27 -71.88 40.27 -70.62 37.89 C-70.41 37.27 -70.21 36.64 -70 36 C-68.35 36 -66.7 36 -65 36 C-64.67 34.68 -64.34 33.36 -64 32 C-62.87 31.71 -61.73 31.42 -60.56 31.12 C-59.39 30.75 -58.21 30.38 -57 30 C-56.67 29.34 -56.34 28.68 -56 28 C-53.44 27.38 -53.44 27.38 -51 27 C-51 26.01 -51 25.02 -51 24 C-50.46 23.88 -49.93 23.75 -49.38 23.62 C-46.54 22.88 -43.78 21.95 -41 21 C-41.66 20.67 -42.32 20.34 -43 20 C-40.11 18.42 -37.47 17.54 -34.25 16.88 C-33.45 16.71 -32.65 16.54 -31.83 16.37 C-31.22 16.25 -30.62 16.12 -30 16 C-30.66 15.67 -31.32 15.34 -32 15 C-32 14.34 -32 13.68 -32 13 C-30.91 12.86 -29.81 12.71 -28.69 12.56 C-25.07 12.12 -25.07 12.12 -22 11 C-22 10.01 -22 9.02 -22 8 C-18.04 7.34 -14.08 6.68 -10 6 C-10 5.01 -10 4.02 -10 3 C-9.34 3 -8.68 3 -8 3 C-8 2.01 -8 1.02 -8 0 C-4.71 -0.8 -3.29 -1.1 0 0 Z " fill="#030305" transform="translate(525,249)"/>
</svg>
